<svg xmlns="http://www.w3.org/2000/svg" width="1em" height="1em" viewBox="0 0 24 24"><path fill="currentColor" d="m6.923 13.442l1.848-4.75H5.038l-1.267 1.904H3.02l.827-2.865l-.827-2.885h.752L5.04 6.75h3.73L6.923 2h1l3.335 4.75h3.146q.413 0 .697.284q.284.283.284.697t-.284.687q-.284.274-.697.274h-3.146l-3.335 4.75zM16.096 22l-3.335-4.75H9.617q-.414 0-.698-.284q-.283-.283-.283-.697t.283-.697t.698-.284h3.146l3.334-4.73h1l-1.848 4.73h3.733l1.267-1.884H21l-.827 2.865l.827 2.885h-.752l-1.267-1.904h-3.733L17.096 22z"/></svg>