<svg xmlns="http://www.w3.org/2000/svg" width="1em" height="1em" viewBox="0 0 24 24"><path fill="currentColor" d="M8.916 18.25q-.441 0-.74-.299t-.299-.74V6.79q0-.441.299-.74t.74-.299h3.159q1.433 0 2.529.904T15.7 9.006q0 .967-.508 1.693t-1.257 1.065q.913.255 1.55 1.073t.638 1.97q0 1.61-1.202 2.527q-1.202.916-2.646.916zm.236-1.184h3.062q1.161 0 1.875-.7q.715-.699.715-1.627q0-.93-.714-1.629q-.715-.698-1.894-.698H9.152zm0-5.816h2.864q.997 0 1.69-.617t.692-1.546q0-.947-.704-1.553q-.704-.605-1.667-.605H9.152z"/></svg>