<svg xmlns="http://www.w3.org/2000/svg" width="1em" height="1em" viewBox="0 0 24 24"><path fill="currentColor" d="M5.616 20q-.691 0-1.153-.462T4 18.384V5.616q0-.691.463-1.153T5.616 4h7.178q.25 0 .375.159q.125.158.125.341t-.128.341T12.79 5H5.616q-.231 0-.424.192T5 5.616v12.769q0 .23.192.423t.423.192h12.77q.23 0 .423-.192t.192-.423V11.11q0-.25.159-.375q.158-.125.341-.125t.341.125t.159.375v7.275q0 .69-.462 1.153T18.384 20zM10 13.192v-1.136q0-.323.13-.628q.132-.305.349-.522l8.465-8.465q.166-.166.348-.23t.385-.063q.189 0 .368.064t.326.21L21.483 3.5q.16.166.242.365t.083.4t-.061.382q-.06.18-.226.345l-8.523 8.524q-.217.217-.522.35q-.305.134-.628.134h-1.04q-.349 0-.578-.23t-.23-.578m10.814-8.907l-1.112-1.17zM11 13h1.092l6.666-6.666l-.546-.546l-.61-.584L11 11.806zm7.212-7.211l-.61-.585zl.546.546z"/></svg>