<svg xmlns="http://www.w3.org/2000/svg" width="1em" height="1em" viewBox="0 0 50 50"><path fill="currentColor" d="M39 38H11c-1.7 0-3-1.3-3-3V15c0-1.7 1.3-3 3-3h28c1.7 0 3 1.3 3 3v20c0 1.7-1.3 3-3 3M11 14c-.6 0-1 .4-1 1v20c0 .6.4 1 1 1h28c.6 0 1-.4 1-1V15c0-.6-.4-1-1-1z"/><path fill="currentColor" d="M30 24c-2.2 0-4-1.8-4-4s1.8-4 4-4s4 1.8 4 4s-1.8 4-4 4m0-6c-1.1 0-2 .9-2 2s.9 2 2 2s2-.9 2-2s-.9-2-2-2m5.3 19.7L19 22.4L9.7 31l-1.4-1.4l10.7-10l17.7 16.7z"/><path fill="currentColor" d="M40.4 32.7L35 28.3L30.5 32l-1.3-1.6l5.8-4.7l6.6 5.4z"/></svg>