<svg xmlns="http://www.w3.org/2000/svg" width="1em" height="1em" viewBox="0 0 24 24"><g fill="none" fill-rule="evenodd"><path d="m12.593 23.258l-.011.002l-.071.035l-.02.004l-.014-.004l-.071-.035q-.016-.005-.024.005l-.004.01l-.017.428l.005.02l.01.013l.104.074l.015.004l.012-.004l.104-.074l.012-.016l.004-.017l-.017-.427q-.004-.016-.017-.018m.265-.113l-.013.002l-.185.093l-.01.01l-.003.011l.018.43l.005.012l.008.007l.201.093q.019.005.029-.008l.004-.014l-.034-.614q-.005-.018-.02-.022m-.715.002a.02.02 0 0 0-.027.006l-.006.014l-.034.614q.001.018.017.024l.015-.002l.201-.093l.01-.008l.004-.011l.017-.43l-.003-.012l-.01-.01z"/><path fill="currentColor" d="M5.83 5.106A2 2 0 0 1 7.617 4h8.764a2 2 0 0 1 1.789 1.106l3.512 7.025a3 3 0 0 1 .318 1.34V19a2 2 0 0 1-2 2H4a2 2 0 0 1-2-2v-5.528a3 3 0 0 1 .317-1.341zM16.381 6H7.618L4.12 13H7.5A1.5 1.5 0 0 1 9 14.5v1a.5.5 0 0 0 .5.5h5a.5.5 0 0 0 .5-.5v-1a1.5 1.5 0 0 1 1.5-1.5h3.38z"/></g></svg>