<svg xmlns="http://www.w3.org/2000/svg" width="1em" height="1em" viewBox="0 0 24 24"><path fill="currentColor" d="m18.52 15.758l-.77-.781q1.02-.275 1.635-1.101T20 12q0-1.27-.894-2.173q-.895-.904-2.145-.904h-3.615v-1h3.616q1.67 0 2.854 1.193T21 12q0 1.233-.69 2.23q-.689.999-1.79 1.528M15.311 12.5l-1-1h1.15v1zm5.18 9.408l-18.4-18.4L2.8 2.8l18.4 18.4zm-9.838-5.831H7.077q-1.69 0-2.884-1.193T3 12q0-1.61 1.098-2.777t2.69-1.265h.462l.966.965H7.077q-1.27 0-2.173.904Q4 10.731 4 12t.904 2.173t2.173.904h3.577zM8.539 12.5v-1h2.259l.975 1z"/></svg>