<svg xmlns="http://www.w3.org/2000/svg" width="1em" height="1em" viewBox="0 0 24 24"><path fill="currentColor" d="M17.077 16.077h-2.448q-.194 0-.335-.144q-.14-.143-.14-.356q0-.194.144-.347q.143-.153.356-.153h2.423v-2.423q0-.213.144-.356q.144-.144.357-.144t.356.144t.143.356v2.423H20.5q.213 0 .356.144q.144.144.144.357t-.144.356t-.356.143h-2.423V18.5q0 .213-.144.356t-.357.144t-.356-.144t-.143-.356zm-6.961 0H7.077q-1.692 0-2.884-1.192T3 12t1.193-2.885t2.884-1.193h3.039q.194 0 .347.153t.153.357t-.153.347t-.347.143H7.075q-1.267 0-2.171.904T4 12t.904 2.173t2.17.904h3.042q.194 0 .347.153t.153.356t-.153.348t-.347.143M9 12.5q-.213 0-.356-.144t-.144-.357t.144-.356T9 11.5h6q.213 0 .356.144t.144.357t-.144.356T15 12.5zm12-.5h-1q0-1.27-.904-2.173q-.904-.904-2.17-.904H13.86q-.194 0-.335-.144t-.14-.356q0-.194.143-.347q.144-.153.357-.153h3.038q1.692 0 2.885 1.193T21 12"/></svg>