<svg xmlns="http://www.w3.org/2000/svg" width="40" height="40" viewBox="0 0 14 14"><path fill="currentColor" fill-rule="evenodd" d="M3.564 4.884a1.91 1.91 0 0 0-1.523.542a1.9 1.9 0 0 0-.442.691a2.5 2.5 0 0 0-.08.511c-.02.255-.02.49 0 .744c.02.241.052.434.08.51A1.87 1.87 0 0 0 2.74 9.015c.263.094.545.129.824.102l.07-.003c.373 0 .78-.2 1.271-.68c.392-.384.77-.879 1.172-1.433c-.401-.554-.78-1.049-1.172-1.432c-.491-.482-.898-.681-1.27-.681l-.071-.003ZM7 8.277a11 11 0 0 1-1.045 1.227c-.598.585-1.352 1.096-2.284 1.109a3.41 3.41 0 0 1-2.687-.974a3.4 3.4 0 0 1-.796-1.246c-.104-.287-.144-.664-.163-.9A6 6 0 0 1 0 7q.001-.247.024-.493c.02-.236.06-.613.163-.9a3.37 3.37 0 0 1 2.048-2.034c.46-.164.95-.227 1.435-.186c.932.013 1.686.524 2.284 1.109c.368.36.716.789 1.045 1.227a11 11 0 0 1 1.045-1.227c.598-.585 1.352-1.096 2.284-1.109a3.41 3.41 0 0 1 2.687.974c.354.352.626.777.796 1.246c.104.287.144.664.163.9q.022.246.025.493q-.002.247-.025.493c-.02.236-.06.613-.163.9a3.37 3.37 0 0 1-2.048 2.034c-.46.164-.95.227-1.435.186c-.932-.013-1.686-.524-2.284-1.109a11 11 0 0 1-1.045-1.227Zm5.48-.905c-.02.241-.051.434-.079.51a1.87 1.87 0 0 1-1.141 1.132a1.9 1.9 0 0 1-.823.102l-.072-.003c-.372 0-.779-.2-1.27-.68c-.392-.384-.77-.879-1.172-1.433c.401-.554.78-1.049 1.172-1.432c.491-.482.898-.681 1.27-.681l.072-.003a1.91 1.91 0 0 1 1.522.542c.197.196.348.432.442.691c.028.077.06.27.08.511c.02.255.02.49 0 .744Z" clip-rule="evenodd"/></svg>