<svg xmlns="http://www.w3.org/2000/svg" width="1em" height="1em" viewBox="0 0 32 32"><g fill="none"><path fill="url(#fluentColorPeople320)" d="M27.593 18A2.406 2.406 0 0 1 30 20.406S30 25 23 25h.002c-7 0-7-4.594-7-4.594A2.406 2.406 0 0 1 18.408 18z"/><path fill="url(#fluentColorPeople325)" fill-opacity="0.5" d="M27.593 18A2.406 2.406 0 0 1 30 20.406S30 25 23 25h.002c-7 0-7-4.594-7-4.594A2.406 2.406 0 0 1 18.408 18z"/><path fill="url(#fluentColorPeople321)" d="M5 18a3 3 0 0 0-3 3v.15S2 27 10.5 27s8.5-5.85 8.5-5.85V21a3 3 0 0 0-3-3z"/><path fill="url(#fluentColorPeople322)" d="M5 18a3 3 0 0 0-3 3v.15S2 27 10.5 27s8.5-5.85 8.5-5.85V21a3 3 0 0 0-3-3z"/><path fill="url(#fluentColorPeople323)" d="M23 16a4 4 0 1 0 0-8a4 4 0 0 0 0 8"/><path fill="url(#fluentColorPeople324)" d="M10.5 16a5.5 5.5 0 1 0 0-11a5.5 5.5 0 0 0 0 11"/><defs><linearGradient id="fluentColorPeople320" x1="19.331" x2="21.593" y1="18.93" y2="26.153" gradientUnits="userSpaceOnUse"><stop offset=".125" stop-color="#9c6cfe"/><stop offset="1" stop-color="#7a41dc"/></linearGradient><linearGradient id="fluentColorPeople321" x1="6.043" x2="9.088" y1="19.196" y2="28.383" gradientUnits="userSpaceOnUse"><stop offset=".125" stop-color="#bd96ff"/><stop offset="1" stop-color="#9c6cfe"/></linearGradient><linearGradient id="fluentColorPeople322" x1="10.5" x2="14.776" y1="16.929" y2="32.021" gradientUnits="userSpaceOnUse"><stop stop-color="#885edb" stop-opacity="0"/><stop offset="1" stop-color="#e362f8"/></linearGradient><linearGradient id="fluentColorPeople323" x1="20.902" x2="24.98" y1="9.063" y2="15.574" gradientUnits="userSpaceOnUse"><stop offset=".125" stop-color="#9c6cfe"/><stop offset="1" stop-color="#7a41dc"/></linearGradient><linearGradient id="fluentColorPeople324" x1="7.616" x2="13.222" y1="6.462" y2="15.414" gradientUnits="userSpaceOnUse"><stop offset=".125" stop-color="#bd96ff"/><stop offset="1" stop-color="#9c6cfe"/></linearGradient><radialGradient id="fluentColorPeople325" cx="0" cy="0" r="1" gradientTransform="matrix(9.21155 -1.02083 .91051 8.21605 14.227 21.5)" gradientUnits="userSpaceOnUse"><stop offset=".392" stop-color="#3b148a"/><stop offset="1" stop-color="#3b148a" stop-opacity="0"/></radialGradient></defs></g></svg>