<svg xmlns="http://www.w3.org/2000/svg" width="1em" height="1em" viewBox="0 0 24 24"><path fill="currentColor" d="M12 12.385q-1.246 0-2.123-.877T9 9.385v-2.75q0-.471.322-.803t.794-.332q.298 0 .539.137q.241.136.403.365q.161-.229.403-.365q.241-.137.539-.137t.54.137t.402.365q.162-.229.403-.365q.241-.137.54-.137q.47 0 .793.332q.322.332.322.803v2.75q0 1.246-.877 2.123T12 12.385m-7 6.192v-.608q0-.619.36-1.159q.361-.539.97-.837q1.416-.679 2.834-1.018q1.417-.34 2.836-.34t2.837.34t2.832 1.018q.61.298.97.837q.361.54.361 1.16v.607q0 .44-.299.74q-.299.298-.74.298H6.04q-.441 0-.74-.299t-.3-.739"/></svg>