<svg xmlns="http://www.w3.org/2000/svg" width="1em" height="1em" viewBox="0 0 24 24"><path fill="currentColor" d="M8 14.5q-.213 0-.357-.143T7.5 14V9.116q0-.672.472-1.144T9.116 7.5h8.957l-2.721-2.721q-.146-.146-.156-.347t.156-.367t.357-.165t.357.166l3.369 3.369q.242.242.242.565t-.242.566l-3.37 3.388q-.14.16-.341.162t-.366-.162q-.166-.166-.159-.357t.153-.357l2.721-2.74H9.115q-.269 0-.442.173t-.173.443V14q0 .214-.143.357T8 14.5M5.616 20q-.672 0-1.144-.472T4 18.385V5.115q0-.213.143-.356t.357-.143t.357.143t.143.357v13.269q0 .269.173.442t.443.173h10.769q.269 0 .442-.173t.173-.442V15q0-.213.143-.357t.357-.143t.357.143T18 15v3.385q0 .67-.472 1.143q-.472.472-1.143.472z"/></svg>