<svg xmlns="http://www.w3.org/2000/svg" width="1em" height="1em" viewBox="0 0 24 24"><path fill="currentColor" d="M12.15 19.385q-1.421 0-2.624-.751t-1.882-2.017q-.09-.188-.014-.395t.27-.297q.2-.096.418-.02t.34.276q.546.98 1.472 1.546q.926.565 2.031.565q1.389 0 2.451-.79t1.063-2.071q0-.327-.058-.654t-.23-.615q-.058-.212.061-.389q.12-.177.33-.235q.212-.057.402.062q.19.12.247.33q.212.345.279.756t.067.814q0 1.725-1.399 2.805t-3.224 1.08M3 11.5q-.213 0-.357-.143T2.5 11t.143-.357T3 10.5h18q.214 0 .357.143T21.5 11t-.143.357T21 11.5zm5.296-3.029q-.213-.058-.325-.247q-.111-.19-.054-.403q.106-1.463 1.33-2.371q1.222-.908 2.803-.908q1.066 0 2.003.452t1.566 1.287q.122.177.089.386t-.216.331q-.194.127-.412.09t-.376-.225q-.471-.617-1.163-.923t-1.48-.306q-1.194 0-2.117.67t-.998 1.782q-.057.22-.247.331t-.403.054"/></svg>