<svg xmlns="http://www.w3.org/2000/svg" width="40" height="40" viewBox="0 0 24 24"><g fill="none"><path d="m12.593 23.258l-.011.002l-.071.035l-.02.004l-.014-.004l-.071-.035q-.016-.005-.024.005l-.004.01l-.017.428l.005.02l.01.013l.104.074l.015.004l.012-.004l.104-.074l.012-.016l.004-.017l-.017-.427q-.004-.016-.017-.018m.265-.113l-.013.002l-.185.093l-.01.01l-.003.011l.018.43l.005.012l.008.007l.201.093q.019.005.029-.008l.004-.014l-.034-.614q-.005-.018-.02-.022m-.715.002a.02.02 0 0 0-.027.006l-.006.014l-.034.614q.001.018.017.024l.015-.002l.201-.093l.01-.008l.004-.011l.017-.43l-.003-.012l-.01-.01z"/><path fill="currentColor" d="M12 2c.896 0 1.764.118 2.59.339l-2.126 2.125A3 3 0 0 0 12.04 5H12a7 7 0 1 0 7 7v-.04q.29-.18.535-.425l2.126-2.125c.221.826.339 1.694.339 2.59c0 5.523-4.477 10-10 10S2 17.523 2 12S6.477 2 12 2m-.414 5.017c0 .851-.042 1.714.004 2.564l-.54.54a2 2 0 1 0 2.829 2.829l.54-.54c.85.046 1.712.004 2.564.004a5 5 0 1 1-5.397-5.397m6.918-4.89a1 1 0 0 1 .617.923v1.83h1.829a1 1 0 0 1 .707 1.707L18.12 10.12a1 1 0 0 1-.707.293H15l-1.828 1.829a1 1 0 0 1-1.415-1.415L13.586 9V6.586a1 1 0 0 1 .293-.708l3.535-3.535a1 1 0 0 1 1.09-.217"/></g></svg>