<svg xmlns="http://www.w3.org/2000/svg" width="1em" height="1em" viewBox="0 0 24 24"><path fill="currentColor" d="M18 20.423q.2 0 .33-.13t.132-.331t-.131-.331T18 19.5t-.33.13t-.132.332t.131.33t.331.131m-.385-1.846h.77v-3h-.77zM4 18.384V19V8zM4.615 20q-.69 0-1.153-.462T3 18.384V8.616q0-.691.463-1.153T4.615 7H9V5.615q0-.69.463-1.153T10.616 4h2.769q.69 0 1.153.462T15 5.615V7h4.385q.69 0 1.152.463T21 8.616v4.198q-.239-.152-.479-.265q-.24-.112-.521-.21V8.616q0-.27-.173-.443T19.385 8H4.615q-.269 0-.442.173T4 8.616v9.769q0 .269.173.442t.443.173h7.459q.056.275.12.516q.063.24.153.484zM10 7h4V5.615q0-.269-.173-.442T13.385 5h-2.77q-.269 0-.442.173T10 5.615zm8 15q-1.671 0-2.835-1.164Q14 19.67 14 18t1.165-2.835T18 14t2.836 1.165T22 18t-1.164 2.836T18 22"/></svg>