<svg xmlns="http://www.w3.org/2000/svg" width="1em" height="1em" viewBox="0 0 24 24"><path fill="currentColor" d="M9.039 10H7.654q-.213 0-.356-.144t-.144-.357t.144-.356T7.654 9h1.385V7.616q0-.213.144-.357q.143-.144.356-.144t.356.144t.144.356V9h1.384q.213 0 .356.144t.144.357t-.144.356t-.356.143h-1.384v1.385q0 .212-.144.356t-.357.143t-.356-.143t-.143-.357zm.5 5.23q-2.403 0-4.067-1.662q-1.664-1.664-1.664-4.065T5.47 5.436t4.064-1.667q2.402 0 4.068 1.664q1.666 1.665 1.666 4.067q0 1.042-.369 2.017t-.97 1.668l5.909 5.907q.14.14.15.345q.009.203-.15.363q-.16.16-.354.16t-.354-.16l-5.908-5.908q-.75.639-1.725.989t-1.96.35m0-1q1.99 0 3.361-1.37q1.37-1.37 1.37-3.361T12.9 6.14T9.54 4.77q-1.991 0-3.361 1.37T4.808 9.5t1.37 3.36t3.36 1.37"/></svg>